# xmcd
#
# Track frame offsets:
# 150
# 8032
# 22267
# 38693
# 53915
# 65362
# 80578
# 93989
# 112191
# 124824
#
# Disc length: 1873 seconds
#
#
# Revision: 0
# Processed by: cddbd v1.5.1PL0 Copyright (c) Steve Scherf et al.
# Submitted via: FreeRIP 2.943 
#
DISCID=81074f0a
DTITLE=Darowyn Lee - Daddy
DYEAR=2001
DGENRE=Gospel
TTITLE0=Gonna be moving
TTITLE1=The Last Mountain
TTITLE2=That sounds like home to me
TTITLE3=Supper Time
TTITLE4=It's not so hard to praise Him
TTITLE5=A little more time
TTITLE6=Queen without a crown
TTITLE7=O Come Angel Band
TTITLE8=All Alone
TTITLE9=Daddy
EXTD=
EXTT0=
EXTT1=
EXTT2=
EXTT3=
EXTT4=
EXTT5=
EXTT6=
EXTT7=
EXTT8=
EXTT9=
PLAYORDER=
